<svg width="27" height="27" viewBox="0 0 27 27" fill="none" xmlns="http://www.w3.org/2000/svg">
<path d="M20.0803 2.66661L24.4136 6.99994M24.4136 6.99994L20.0803 11.3333M24.4136 6.99994H15.747M24.4136 18.8299V22.0799C24.4148 22.3817 24.353 22.6803 24.2322 22.9567C24.1113 23.2332 23.934 23.4813 23.7117 23.6853C23.4894 23.8893 23.2269 24.0445 22.9411 24.1412C22.6553 24.2379 22.3524 24.2738 22.052 24.2466C18.7184 23.8844 15.5162 22.7453 12.7028 20.9208C10.0853 19.2575 7.86607 17.0383 6.20279 14.4208C4.37193 11.5946 3.23255 8.37685 2.87696 5.02828C2.84989 4.7287 2.88549 4.42677 2.9815 4.1417C3.07751 3.85664 3.23183 3.59469 3.43462 3.37253C3.63742 3.15037 3.88425 2.97288 4.1594 2.85134C4.43455 2.7298 4.73199 2.66689 5.03279 2.66661H8.28279C8.80854 2.66143 9.31823 2.84761 9.71687 3.19044C10.1155 3.53326 10.3759 4.00934 10.4495 4.52994C10.5866 5.57001 10.841 6.59123 11.2078 7.57411C11.3535 7.96186 11.3851 8.38327 11.2987 8.7884C11.2123 9.19352 11.0116 9.5654 10.7203 9.85994L9.34446 11.2358C10.8866 13.9479 13.1323 16.1936 15.8445 17.7358L17.2203 16.3599C17.5148 16.0687 17.8867 15.8679 18.2918 15.7815C18.697 15.6951 19.1184 15.7267 19.5061 15.8724C20.489 16.2392 21.5102 16.4936 22.5503 16.6308C23.0765 16.705 23.5571 16.9701 23.9007 17.3756C24.2443 17.781 24.4268 18.2986 24.4136 18.8299Z" stroke="white" stroke-width="2.16667" stroke-linecap="round" stroke-linejoin="round"/>
</svg>
