<svg width="80" height="80" viewBox="0 0 80 80" fill="none" xmlns="http://www.w3.org/2000/svg">
<path fill-rule="evenodd" clip-rule="evenodd" d="M56.0414 43.5592C56.1526 38.5104 56.2222 32.8384 53.695 27.992C51.7966 24.3504 48.6334 21.608 45.5742 18.9576C44.751 18.244 43.9286 17.5312 43.1326 16.8024C40.987 14.8416 39.3854 12.9744 38.235 11.0952C37.1646 9.34641 36.8286 7.72001 36.439 5.83681C36.3358 5.33921 36.231 4.83041 36.1086 4.30641C36.0798 4.18401 35.9958 4.08321 35.8814 4.03361C35.7662 3.98241 35.6358 3.99041 35.527 4.05281C34.3198 4.74241 33.303 6.32641 32.4854 7.59921C32.3182 7.85921 32.1598 8.10721 32.0094 8.33121C31.039 9.77601 30.1278 11.3328 29.2238 13.0904C27.4926 16.4592 26.1286 19.9184 24.9126 23.1544C24.4782 24.3104 24.1294 25.508 23.7918 26.6656C23.5022 27.6592 23.2022 28.6864 22.8526 29.6736C19.8534 38.1296 21.2646 41.3448 23.0518 45.4144L23.1014 45.528C23.2534 45.8744 23.2294 46.3344 23.0406 46.7304C22.8558 47.1168 22.415 47.3488 21.9478 47.5944C21.807 47.6688 21.6662 47.7424 21.5318 47.8216C19.6166 48.936 18.5158 51.4456 18.8542 53.924C19.207 56.5008 20.8462 58.5392 22.159 59.7952C26.6246 64.0664 33.7398 65.4224 39.4614 63.092L39.6446 63.0168C40.1006 62.828 40.531 62.6504 40.9678 62.6376C41.4806 62.6024 42.0214 62.8512 42.471 63.0768C43.5902 63.6408 44.6094 64.372 45.5006 65.2504C45.5054 65.2552 45.5118 65.2568 45.5166 65.2608C45.539 65.2808 45.5638 65.2952 45.5902 65.3096C45.6078 65.3192 45.6238 65.3312 45.643 65.3376C45.6486 65.34 45.6534 65.3448 45.6598 65.3464C45.7518 65.456 46.0086 65.8632 46.4598 67.2448L46.947 68.8728C47.3734 70.4008 47.911 72.572 48.5758 75.6872C48.6142 75.8728 48.779 76 48.9614 76C48.9886 76 49.0166 75.9968 49.0446 75.9912C49.2582 75.9456 49.3942 75.7352 49.3486 75.5216C48.0606 69.4848 47.0342 65.9208 46.2918 64.8968C46.5942 64.4 46.8094 63.8648 47.0142 63.3416C47.2598 62.7136 47.4918 62.12 47.8646 61.6176C48.8686 60.2672 50.5958 59.8672 52.4246 59.4448C53.0222 59.3072 53.6406 59.164 54.2246 58.9856C57.8278 57.8864 60.599 54.92 61.1206 51.6048C61.691 47.9824 59.3406 44.3168 56.0414 43.5592Z" fill="#FBB605"/>
</svg>
