<svg width="105" height="68" viewBox="0 0 105 68" fill="none" xmlns="http://www.w3.org/2000/svg">
<path fill-rule="evenodd" clip-rule="evenodd" d="M54.9509 46.1629L67.6139 33.4999L54.9509 20.8369C51.5339 17.4199 51.5339 11.8589 54.9509 8.4419C58.3679 5.0249 63.9289 5.0249 67.3459 8.4419L80.0089 21.1049L89.3219 30.4179C91.0639 32.1599 91.0639 34.9069 89.3219 36.6489L80.0089 45.8949L67.3459 58.5579C63.9289 61.9749 58.3679 61.9749 54.9509 58.5579C51.5339 55.1409 51.5339 49.5799 54.9509 46.1629Z" fill="#FBB605"/>
<path fill-rule="evenodd" clip-rule="evenodd" d="M16.9509 47.1629L29.6139 34.4999L16.9509 21.8369C13.5339 18.4199 13.5339 12.8589 16.9509 9.4419C20.3679 6.0249 25.9289 6.0249 29.3459 9.4419L42.0089 22.1049L51.3219 31.4179C53.0639 33.1599 53.0639 35.9069 51.3219 37.6489L42.0089 46.8949L29.3459 59.5579C25.9289 62.9749 20.3679 62.9749 16.9509 59.5579C13.5339 56.1409 13.5339 50.5799 16.9509 47.1629Z" fill="#FBB605"/>
</svg>
