<svg width="80" height="80" viewBox="0 0 80 80" fill="none" xmlns="http://www.w3.org/2000/svg">
<g clip-path="url(#clip0_1_1451)">
<path fill-rule="evenodd" clip-rule="evenodd" d="M40 0C17.9083 0 0 17.9083 0 40C0 62.0917 17.9083 80 40 80C62.0917 80 80 62.0917 80 40C80 17.9083 62.0917 0 40 0ZM59.6867 34.0433L38.3217 55.41C35.7267 58.0033 31.6183 58.135 29.1883 55.705C28.84 55.3567 28.5583 54.9683 28.3167 54.5583L19.5833 45.8283C16.9883 43.2333 16.8567 39.1267 19.2867 36.6967C21.7183 34.2683 25.8283 34.3983 28.42 36.9933L33.7433 42.3167L50.8483 25.2083C53.445 22.615 57.5517 22.4833 59.98 24.9133C62.4117 27.34 62.2783 31.4517 59.6867 34.0433Z" fill="#FBB605"/>
</g>
<defs>
<clipPath id="clip0_1_1451">
<rect width="80" height="80" fill="white"/>
</clipPath>
</defs>
</svg>
