<svg width="80" height="80" viewBox="0 0 80 80" fill="none" xmlns="http://www.w3.org/2000/svg">
<path fill-rule="evenodd" clip-rule="evenodd" d="M37.9467 54.924V51.896C35.9179 51.8 33.9491 51.1944 32.7979 50.5248L33.7066 46.7952C34.9786 47.5288 36.765 48.1984 38.7338 48.1984C40.4906 48.1984 41.6714 47.4648 41.6714 46.2216C41.6714 45.0104 40.7018 44.2448 38.4306 43.4488C35.1898 42.3 32.9794 40.7064 32.9794 37.6152C32.9794 34.7784 34.857 32.5792 38.097 31.9416V28.9136H41.065V31.7184C43.0634 31.7824 44.4266 32.26 45.4858 32.7704L44.5778 36.372C43.821 35.9896 42.397 35.256 40.2162 35.256C38.2474 35.256 37.6115 36.1808 37.6115 37.0728C37.6115 38.0928 38.6714 38.7944 41.2762 39.7824C44.8802 41.1216 46.3034 42.8744 46.3034 45.7752C46.3034 48.612 44.4259 51.0344 40.9427 51.64V54.9232H37.9467V54.924Z" fill="#FBB605"/>
<path fill-rule="evenodd" clip-rule="evenodd" d="M48.2536 57.8833C52.4656 54.5561 55.14 48.8945 55.14 42.3513C55.14 32.0529 48.2456 23.7049 39.7432 23.7049C31.2408 23.7049 24.348 32.0529 24.348 42.3513C24.348 48.8929 27 54.5377 31.2088 57.8657L31.2504 57.9185H0V19.6001H79.9376V57.9185H48.2032L48.2536 57.8833ZM74.0704 52.0505V43.4009H71.5992V49.5793H59.2416V52.0505H74.0704ZM20.9336 52.0505V49.5793H8.576V43.4009H6.10481V52.0505H20.9336ZM74.0704 34.1337V25.4841H59.2416V27.9553H71.5992V34.1345H74.0704V34.1337ZM8.576 34.1337V27.9545H20.9336V25.4833H6.10481V34.1329H8.576V34.1337Z" fill="#FBB605"/>
</svg>
